<?xml version="1.0" encoding="UTF-8"?>
<svg id="Layer_2" data-name="Layer 2" xmlns="http://www.w3.org/2000/svg" xmlns:xlink="http://www.w3.org/1999/xlink" viewBox="0 0 223.27 102.4">
  <defs>
    <style>
      .cls-1 {
        fill: url(#linear-gradient-8);
      }

      .cls-2 {
        fill: url(#linear-gradient-7);
      }

      .cls-3 {
        fill: url(#linear-gradient-5);
      }

      .cls-4 {
        fill: url(#linear-gradient-6);
      }

      .cls-5 {
        fill: url(#linear-gradient-9);
      }

      .cls-6 {
        fill: url(#linear-gradient-4);
      }

      .cls-7 {
        fill: url(#linear-gradient-3);
      }

      .cls-8 {
        fill: url(#linear-gradient-2);
      }

      .cls-9 {
        fill: url(#linear-gradient);
      }

      .cls-10 {
        fill: url(#linear-gradient-10);
      }

      .cls-11 {
        fill: url(#linear-gradient-11);
      }

      .cls-12 {
        fill: url(#linear-gradient-12);
      }

      .cls-13 {
        fill: url(#linear-gradient-13);
      }

      .cls-14 {
        fill: url(#linear-gradient-14);
      }
    </style>
    <linearGradient id="linear-gradient" x1="179.14" y1="226.71" x2="-18.14" y2="340.61" gradientTransform="translate(0 337.68) scale(1 -1)" gradientUnits="userSpaceOnUse">
      <stop offset="0" stop-color="#a7dddf"/>
      <stop offset=".87" stop-color="#34b7d1"/>
      <stop offset="1" stop-color="#23b2cf"/>
    </linearGradient>
    <linearGradient id="linear-gradient-2" x1="182" y1="231.68" x2="-15.28" y2="345.58" xlink:href="#linear-gradient"/>
    <linearGradient id="linear-gradient-3" x1="190.47" y1="246.35" x2="-6.81" y2="360.25" xlink:href="#linear-gradient"/>
    <linearGradient id="linear-gradient-4" x1="197.51" y1="258.55" x2=".23" y2="372.45" xlink:href="#linear-gradient"/>
    <linearGradient id="linear-gradient-5" x1="204.96" y1="271.45" x2="7.68" y2="385.35" xlink:href="#linear-gradient"/>
    <linearGradient id="linear-gradient-6" x1="212.67" y1="284.79" x2="15.39" y2="398.69" xlink:href="#linear-gradient"/>
    <linearGradient id="linear-gradient-7" x1="215.08" y1="288.97" x2="17.8" y2="402.87" xlink:href="#linear-gradient"/>
    <linearGradient id="linear-gradient-8" x1="222.33" y1="301.53" x2="25.05" y2="415.43" xlink:href="#linear-gradient"/>
    <linearGradient id="linear-gradient-9" x1="159.23" y1="192.24" x2="-38.05" y2="306.14" xlink:href="#linear-gradient"/>
    <linearGradient id="linear-gradient-10" x1="166.77" y1="205.3" x2="-30.51" y2="319.2" xlink:href="#linear-gradient"/>
    <linearGradient id="linear-gradient-11" x1="171.39" y1="213.29" x2="-25.89" y2="327.19" xlink:href="#linear-gradient"/>
    <linearGradient id="linear-gradient-12" x1="176.07" y1="221.41" x2="-21.21" y2="335.31" xlink:href="#linear-gradient"/>
    <linearGradient id="linear-gradient-13" x1="188.28" y1="242.55" x2="-9" y2="356.45" xlink:href="#linear-gradient"/>
    <linearGradient id="linear-gradient-14" x1="196.75" y1="257.22" x2="-.53" y2="371.12" xlink:href="#linear-gradient"/>
  </defs>
  <g id="Layer_2-2" data-name="Layer 2">
    <g id="Dimensions">
      <g>
        <path class="cls-9" d="M.76,1.88h33.02l-.76,8.84h-11.63l-2.39,27.33h-9.75l2.39-27.33H0L.76,1.88Z"/>
        <path class="cls-8" d="M34.14,37.11c-2.03-1.03-3.62-2.51-4.78-4.45s-1.73-4.17-1.73-6.71c0-3.01.64-5.63,1.93-7.85,1.29-2.22,3.06-3.92,5.31-5.11,2.25-1.18,4.77-1.78,7.54-1.78,2.47,0,4.66.5,6.55,1.5,1.9,1,3.36,2.39,4.39,4.17s1.55,3.8,1.55,6.07c0,.54-.02.96-.05,1.27l-.25,2.9h-17.53c-.03,1.59.31,2.81,1.04,3.66s1.72,1.27,2.97,1.27c1.12,0,2.05-.23,2.79-.69s1.25-1.11,1.52-1.96h8.89c-.81,2.74-2.41,4.97-4.8,6.68s-5.21,2.57-8.46,2.57c-2.57,0-4.88-.52-6.91-1.55h.03ZM46.13,22.15c-.07-1.35-.42-2.41-1.04-3.17-.63-.76-1.53-1.14-2.72-1.14s-2.24.37-3.07,1.12c-.83.75-1.4,1.81-1.7,3.2h8.53Z"/>
        <path class="cls-7" d="M60.38,35.33c-1.85-2.22-2.77-5.24-2.77-9.07,0-3.12.54-5.81,1.62-8.08,1.08-2.27,2.56-4,4.42-5.18s3.93-1.78,6.2-1.78c1.93,0,3.56.43,4.9,1.29,1.34.86,2.18,2.04,2.51,3.53l.36-4.22h9.35l-2.29,26.21h-9.35l.36-4.22c-.58,1.49-1.53,2.67-2.87,3.53-1.34.86-2.94,1.29-4.8,1.29-3.25,0-5.8-1.11-7.65-3.33v.03ZM75.03,29.21c.98-1.29,1.47-3.03,1.47-5.23,0-1.63-.36-2.9-1.07-3.84-.71-.93-1.73-1.4-3.05-1.4-1.46,0-2.68.64-3.66,1.93s-1.47,3.03-1.47,5.23c0,1.63.36,2.9,1.07,3.84s1.71,1.4,3,1.4c1.49,0,2.73-.64,3.71-1.93Z"/>
        <path class="cls-6" d="M95.89,37.09c-2.05-1.05-3.62-2.53-4.72-4.45s-1.65-4.16-1.65-6.73c0-2.84.64-5.38,1.93-7.62s3.07-3.97,5.33-5.21c2.27-1.24,4.79-1.85,7.57-1.85,2.54,0,4.77.46,6.68,1.37,1.91.92,3.38,2.17,4.39,3.76,1.02,1.59,1.51,3.4,1.47,5.44h-8.84c-.17-1.02-.58-1.78-1.24-2.29s-1.48-.76-2.46-.76c-1.56,0-2.81.63-3.76,1.88s-1.42,3.01-1.42,5.28c0,1.66.35,2.95,1.04,3.86s1.72,1.37,3.07,1.37c1.05,0,1.93-.27,2.64-.81.71-.54,1.24-1.29,1.58-2.24h8.84c-.3,2.03-1.08,3.85-2.34,5.46-1.25,1.61-2.84,2.86-4.75,3.76-1.91.9-3.96,1.35-6.12,1.35-2.78,0-5.19-.53-7.24-1.57h0Z"/>
        <path class="cls-3" d="M121.72,1.88h9.35l-1.22,14.17c.68-1.35,1.71-2.5,3.1-3.43s3.1-1.4,5.13-1.4c2.71,0,4.8.71,6.27,2.13s2.21,3.5,2.21,6.25c0,.61-.02,1.07-.05,1.37l-1.47,17.07h-9.35l1.32-15.34c.14-1.39-.11-2.41-.74-3.07s-1.48-.99-2.57-.99c-1.32,0-2.38.51-3.17,1.52-.8,1.02-1.26,2.29-1.4,3.81l-1.22,14.07h-9.35l3.15-36.17h0Z"/>
        <path class="cls-4" d="M151.8,11.84h9.35l-2.29,26.21h-9.35l2.29-26.21ZM153.45,8.41c-1-.97-1.5-2.12-1.5-3.48s.5-2.51,1.5-3.48,2.21-1.45,3.63-1.45,2.63.48,3.63,1.45c1,.96,1.5,2.12,1.5,3.48s-.5,2.51-1.5,3.48c-1,.96-2.21,1.45-3.63,1.45s-2.63-.48-3.63-1.45Z"/>
        <path class="cls-2" d="M187.92,14.02c2.17,1.86,3.25,4.45,3.25,7.77,0,.61-.02,1.08-.05,1.42l-1.32,14.83h-9.35l1.27-14.38.05-.81c0-1.35-.32-2.36-.96-3.02s-1.51-.99-2.59-.99c-1.22,0-2.2.39-2.95,1.17s-1.19,2-1.32,3.66l-1.27,14.38h-9.35l1.32-14.83c.34-3.83,1.66-6.78,3.96-8.87,2.3-2.08,5.6-3.12,9.91-3.12s7.23.93,9.4,2.79h0Z"/>
        <path class="cls-1" d="M199.8,47.78c-1.93-.69-3.5-1.77-4.7-3.23s-1.82-3.25-1.85-5.39h8.94c.34,1.96,1.64,2.95,3.91,2.95,1.52,0,2.8-.42,3.83-1.27s1.63-2.24,1.8-4.17l.36-4.17c-.58,1.49-1.53,2.67-2.87,3.53s-2.94,1.3-4.8,1.3c-3.25,0-5.79-1.08-7.62-3.25-1.83-2.17-2.74-5.06-2.74-8.69,0-2.85.53-5.34,1.6-7.49s2.51-3.8,4.34-4.95,3.88-1.73,6.15-1.73c1.93,0,3.56.43,4.9,1.29s2.18,2.04,2.51,3.53l.36-4.22h9.35l-2.13,24.49c-.34,3.86-1.8,6.91-4.37,9.14-2.57,2.24-6.13,3.35-10.67,3.35-2.27,0-4.37-.35-6.3-1.04v.02ZM211.44,28.07c.98-1.17,1.47-2.67,1.47-4.5,0-1.42-.37-2.58-1.12-3.48s-1.76-1.35-3.05-1.35c-1.42,0-2.62.59-3.58,1.78s-1.45,2.69-1.45,4.52c0,1.42.36,2.57,1.07,3.45.71.88,1.71,1.32,3,1.32,1.46,0,2.68-.58,3.66-1.75h0Z"/>
        <path class="cls-5" d="M24.64,65.81h9.86l2.64,26.57,8.08-26.57h9.6l3.35,26.57,7.32-26.57h10.16l-11.28,36.17h-13.06l-2.54-20.93-6.1,20.93h-13.06l-4.98-36.17h.01Z"/>
        <path class="cls-10" d="M78.94,75.77h9.35l-2.29,26.21h-9.35l2.29-26.21ZM80.6,72.34c-1-.97-1.5-2.12-1.5-3.48s.5-2.51,1.5-3.48,2.21-1.45,3.63-1.45,2.63.48,3.63,1.45c1,.96,1.5,2.12,1.5,3.48s-.5,2.51-1.5,3.48c-1,.96-2.21,1.45-3.63,1.45s-2.63-.48-3.63-1.45Z"/>
        <path class="cls-11" d="M97.31,100.03c-1.81-1.57-2.6-3.83-2.36-6.78l.86-10.16h-3.71l.66-7.32h3.66l.66-7.47h9.35l-.66,7.47h5.03l-.66,7.32h-4.98l-.81,9.35c-.17,1.76.79,2.64,2.9,2.64.61,0,1.25-.1,1.93-.3l-.66,7.21c-1.02.27-2.18.41-3.51.41-3.32,0-5.88-.79-7.7-2.36h0Z"/>
        <path class="cls-12" d="M116.89,65.81h9.35l-1.22,14.17c.68-1.35,1.71-2.5,3.1-3.43s3.1-1.4,5.13-1.4c2.71,0,4.8.71,6.27,2.13s2.21,3.5,2.21,6.25c0,.61-.02,1.07-.05,1.37l-1.47,17.07h-9.35l1.32-15.34c.14-1.39-.11-2.41-.74-3.07-.63-.66-1.48-.99-2.57-.99-1.32,0-2.38.51-3.17,1.52-.8,1.02-1.26,2.29-1.4,3.81l-1.22,14.07h-9.35l3.15-36.17h0Z"/>
        <path class="cls-13" d="M168.71,65.81h14.94l8.43,36.17h-9.96l-1.63-7.32h-13.26l-2.9,7.32h-10.36l14.73-36.17h.01ZM178.82,87.05l-3.1-13.77-5.44,13.77h8.54Z"/>
        <path class="cls-14" d="M199.4,65.81h9.75l-3.15,36.17h-9.75l3.15-36.17Z"/>
      </g>
    </g>
  </g>
</svg>